PathFileType	4	(X/Y/Z)	/Users/itak/Documents/Research/Walk-IL/dataset/trc/00505_00183.trc
DataRate	CameraRate	NumFrames	NumMarkers	Units	OrigDataRate	OrigDataStartFrame	OrigNumFrames
100.000000	100.000000	4	53	mm	100.000000	276	369
Frame#	Time	RPSI			LPSI			L3			STRN			T10			C7			CLAV			RBAK			LBAK			LSHO			LUPA			LAEL			LAOL			LWTS			LWPS			LFRA			LIFD			LHPS			LHTS			RSHO			RUPA			RAEL			RAOL			RWTS			RWPS			RFRA			RIFD			RHTS			RHPS			RBHD			LFHD			RFHD			LBHD			LHIP			RHIP			RASI			LASI			LKNE			LTHI			LANK			LTIP			LTOE			LMT1			LMT5			LHEE			RKNE			RTHI			RANK			RTIP			RTOE			RMT1			RMT5			RHEE			
		X1	Y1	Z1	X2	Y2	Z2	X3	Y3	Z3	X4	Y4	Z4	X5	Y5	Z5	X6	Y6	Z6	X7	Y7	Z7	X8	Y8	Z8	X9	Y9	Z9	X10	Y10	Z10	X11	Y11	Z11	X12	Y12	Z12	X13	Y13	Z13	X14	Y14	Z14	X15	Y15	Z15	X16	Y16	Z16	X17	Y17	Z17	X18	Y18	Z18	X19	Y19	Z19	X20	Y20	Z20	X21	Y21	Z21	X22	Y22	Z22	X23	Y23	Z23	X24	Y24	Z24	X25	Y25	Z25	X26	Y26	Z26	X27	Y27	Z27	X28	Y28	Z28	X29	Y29	Z29	X30	Y30	Z30	X31	Y31	Z31	X32	Y32	Z32	X33	Y33	Z33	X34	Y34	Z34	X35	Y35	Z35	X36	Y36	Z36	X37	Y37	Z37	X38	Y38	Z38	X39	Y39	Z39	X40	Y40	Z40	X41	Y41	Z41	X42	Y42	Z42	X43	Y43	Z43	X44	Y44	Z44	X45	Y45	Z45	X46	Y46	Z46	X47	Y47	Z47	X48	Y48	Z48	X49	Y49	Z49	X50	Y50	Z50	X51	Y51	Z51	X52	Y52	Z52	X53	Y53	Z53	

277	2.76	1201.2451171875	913.094970703125	842.5130615234375	1263.966186523438	915.6809692382812	736.0985717773438	1225.852661132812	992.6265869140625	781.8649291992188	1406.22900390625	1181.309814453125	876.1719970703125	1203.945068359375	1095.366455078125	777.5462036132812	1214.121826171875	1330.005615234375	794.1151123046875	1361.888427734375	1271.037841796875	859.3653564453125	1147.545166015625	1200.856323242188	852.1665649414062	1233.654663085938	1273.742309570312	705.281982421875	1345.516723632812	1330.419067382812	677.0653686523438	1380.076049804688	1204.54638671875	623.6470336914062	1438.450439453125	1012.946899414062	618.546630859375	1348.558471679688	972.6029663085938	638.1466674804688	1571.454345703125	949.1798706054688	746.6256713867188	1577.716918945312	872.6492309570312	691.7379760742188	1490.2265625	974.200439453125	646.0243530273438	1664.7880859375	855.4097900390625	822.9421997070312	1625.139892578125	857.6063842773438	721.7274780273438	1637.655517578125	908.244873046875	761.8916625976562	1202.482055664062	1322.10693359375	953.3662109375	1167.212158203125	1251.864501953125	995.3422241210938	1161.909545898438	985.86083984375	1036.14306640625	1141.959106445312	960.8397216796875	978.13427734375	1341.503173828125	865.319091796875	1086.607177734375	1270.486694335938	813.18310546875	1107.712768554688	1178.107421875	937.7322998046875	1049.875366210938	1398.733276367188	709.4534301757812	1103.149658203125	1382.291137695312	778.2431030273438	1119.748046875	1313.867309570312	753.3377685546875	1123.014526367188	1186.165893554688	1476.947387695312	870.5264892578125	1346.334228515625	1576.873901367188	804.43701171875	1281.426635742188	1568.691528320312	913.6796264648438	1257.73388671875	1479.34228515625	728.36083984375	1433.740234375	864.5480346679688	683.009033203125	1246.063232421875	836.2905883789062	1014.264526367188	1353.662719726562	903.6725463867188	998.390869140625	1469.326782226562	916.6241455078125	785.3900146484375	1512.661376953125	460.5070190429688	825.1637573242188	1503.374877929688	614.2913818359375	772.606201171875	1391.122680664062	46.25490188598633	751.7849731445312	1484.880859375	310.8782348632812	803.5072631835938	1523.447143554688	23.6432933807373	907.4938354492188	1439.454711914062	30.08733940124512	891.026611328125	1488.325805664062	33.08401107788086	801.9507446289062	1318.270385742188	40.5446662902832	772.52197265625	1395.593872070312	476.5421447753906	1037.749877929688	1302.552490234375	722.09326171875	1041.417846679688	1294.176025390625	56.35876083374023	1002.548278808594	1401.231567382812	336.1134033203125	1042.61279296875	1477.93701171875	26.20289039611816	1085.0400390625	1447.510009765625	31.67293930053711	1014.257080078125	1375.52294921875	41.17829132080078	1079.433715820312	1274.896240234375	45.83340835571289	934.7195434570312	
278	2.77	1207.731567382812	916.8993530273438	848.71044921875	1269.438720703125	919.3225708007812	741.6995239257812	1231.455200195312	995.2875366210938	787.95703125	1411.3037109375	1184.695434570312	878.9845581054688	1208.494018554688	1097.549194335938	783.084228515625	1217.775634765625	1332.24658203125	798.3160400390625	1366.462280273438	1274.22265625	862.1725463867188	1152.40234375	1203.298095703125	857.6669921875	1236.409545898438	1275.76904296875	709.6290283203125	1347.689086914062	1332.555419921875	679.7593994140625	1381.407470703125	1206.631713867188	626.0745239257812	1439.642333984375	1014.887451171875	620.5921630859375	1350.003173828125	974.8174438476562	642.021484375	1574.746704101562	950.9283447265625	746.61083984375	1579.944091796875	874.377197265625	691.6997680664062	1491.746337890625	976.0296020507812	647.2819213867188	1669.559692382812	856.9341430664062	821.018798828125	1627.739624023438	858.7747192382812	721.4242553710938	1641.1904296875	909.9159545898438	760.6463012695312	1207.775756835938	1325.179565429688	957.467041015625	1173.018798828125	1255.273315429688	1000.122192382812	1167.884155273438	989.5564575195312	1043.381469726562	1147.0771484375	964.6359252929688	985.7977294921875	1345.642211914062	864.7220458984375	1091.164428710938	1273.865234375	813.8882446289062	1112.825073242188	1183.46728515625	940.6541748046875	1056.967895507812	1400.407836914062	708.167236328125	1106.632080078125	1385.095947265625	776.8804931640625	1123.679565429688	1316.229370117188	753.2503051757812	1127.483642578125	1189.861206054688	1479.834594726562	873.7006225585938	1350.568237304688	1579.336181640625	808.2005615234375	1285.202880859375	1570.860473632812	917.0068969726562	1261.707885742188	1482.3798828125	731.66845703125	1438.4306640625	867.4906005859375	686.9781494140625	1253.776733398438	839.7291259765625	1019.836547851562	1361.417114257812	906.5940551757812	1003.245727539062	1475.040893554688	919.2224731445312	789.2150268554688	1513.537353515625	461.5069885253906	824.9951782226562	1506.16748046875	616.0817260742188	774.2076416015625	1391.135620117188	47.01054763793945	751.8657836914062	1485.37890625	311.7251892089844	803.080322265625	1523.482177734375	23.62229537963867	907.4444580078125	1439.704345703125	30.41487121582031	891.132080078125	1488.3095703125	33.22005844116211	801.9671630859375	1318.257202148438	41.53779220581055	772.9391479492188	1395.964233398438	476.9697570800781	1039.881103515625	1309.048461914062	725.1185302734375	1045.932983398438	1293.768676757812	56.95003128051758	1002.7255859375	1401.255981445312	336.040283203125	1043.862548828125	1477.501953125	26.13528633117676	1085.028198242188	1446.956787109375	31.73311424255371	1014.197387695312	1375.099243164062	41.19231033325195	1079.520385742188	1274.227416992188	46.5791130065918	935.1461181640625	
279	2.78	1213.959350585938	920.631591796875	854.6954345703125	1274.71875	922.8076171875	747.13037109375	1236.947265625	997.8402709960938	793.8925170898438	1416.355346679688	1187.80029296875	881.7762451171875	1212.879150390625	1099.70361328125	788.5118408203125	1221.533203125	1334.393310546875	802.5543212890625	1371.086791992188	1277.159790039062	864.99365234375	1157.253662109375	1205.700927734375	863.086669921875	1239.242553710938	1277.73291015625	713.982421875	1349.956298828125	1334.542846679688	682.5408325195312	1382.69970703125	1208.61474609375	628.4710693359375	1440.492797851562	1016.530212402344	622.2241821289062	1351.057495117188	977.0006713867188	645.5672607421875	1577.676391601562	951.7457885742188	745.8610229492188	1581.345336914062	875.0783081054688	691.05322265625	1492.818969726562	977.2936401367188	648.0226440429688	1673.681518554688	857.2344360351562	818.260009765625	1629.5185546875	858.8090209960938	720.372802734375	1644.1904296875	910.3836059570312	758.54638671875	1213.166381835938	1328.112915039062	961.5653076171875	1178.90234375	1258.546142578125	1004.885498046875	1173.884765625	993.1361083984375	1050.515991210938	1152.248291015625	968.2979125976562	993.4085083007812	1349.748657226562	864.1359252929688	1095.690673828125	1277.250854492188	814.4769287109375	1117.6806640625	1188.849975585938	943.4382934570312	1063.993408203125	1402.218383789062	707.0914306640625	1110.245727539062	1387.873779296875	775.6263427734375	1127.688598632812	1318.708251953125	753.2793579101562	1131.9072265625	1193.554931640625	1482.430297851562	876.8541870117188	1354.683471679688	1581.656127929688	811.9064331054688	1288.903930664062	1572.871826171875	920.29443359375	1265.650390625	1485.16455078125	734.963623046875	1442.891235351562	870.1510009765625	690.8463134765625	1261.067260742188	843.1215209960938	1025.224487304688	1368.833984375	909.2918701171875	1007.857055664062	1480.5625	921.5824584960938	792.9374389648438	1514.58056640625	462.5140380859375	825.0271606445312	1509.0478515625	617.835693359375	775.990234375	1391.140625	47.84364318847656	751.93896484375	1485.902709960938	312.6063842773438	802.8231811523438	1523.566650390625	23.60125923156738	907.3968505859375	1439.960205078125	30.7619571685791	891.2886962890625	1488.296752929688	33.35894393920898	801.9851684570312	1318.245239257812	42.53374099731445	773.4242553710938	1396.045166015625	477.5147705078125	1042.108276367188	1315.24658203125	727.9769287109375	1050.255493164062	1293.441284179688	57.27578353881836	1002.911499023438	1401.045043945312	335.9385375976562	1045.10791015625	1477.19873046875	26.10616493225098	1085.065307617188	1446.52978515625	31.81707763671875	1014.23095703125	1374.7744140625	41.15059280395508	1079.647705078125	1273.71435546875	47.04686737060547	935.5521850585938	
280	2.79	1219.91650390625	924.2445068359375	860.4750366210938	1279.797119140625	926.0977783203125	752.3977661132812	1242.299072265625	1000.2529296875	799.6793212890625	1421.392456054688	1190.591552734375	884.5430297851562	1217.088623046875	1101.814819335938	793.8515625	1225.419189453125	1336.42333984375	806.83447265625	1375.78466796875	1279.826293945312	867.8294677734375	1162.110961914062	1208.0263671875	868.4580078125	1242.175537109375	1279.606079101562	718.3551635742188	1352.35107421875	1336.366943359375	685.4049682617188	1383.980712890625	1210.4775390625	630.83837890625	1441.0908203125	1017.865051269531	623.4828491210938	1351.834838867188	979.1201782226562	648.8003540039062	1580.28369140625	951.6856079101562	744.4702758789062	1582.022338867188	874.81689453125	689.9144287109375	1493.538940429688	978.0064086914062	648.3165893554688	1677.160522460938	856.4013061523438	814.8458251953125	1630.56640625	857.8077392578125	718.6917114257812	1646.694091796875	909.723388671875	755.7393798828125	1218.676391601562	1330.881713867188	965.6705322265625	1184.88037109375	1261.65869140625	1009.647705078125	1179.913452148438	996.5615844726562	1057.47998046875	1157.453857421875	971.8050537109375	1000.871704101562	1353.807495117188	863.5189819335938	1100.170654296875	1280.604736328125	814.9508666992188	1122.307739257812	1194.241333007812	946.074951171875	1070.88330078125	1404.058715820312	706.08349609375	1113.939819335938	1390.589965820312	774.4197387695312	1131.7626953125	1321.290161132812	753.4487915039062	1136.373901367188	1197.270385742188	1484.7119140625	880.004638671875	1358.687622070312	1583.822021484375	815.5599365234375	1292.5751953125	1574.72607421875	923.5811767578125	1269.565307617188	1487.684692382812	738.2539672851562	1447.115600585938	872.5171508789062	694.5712280273438	1267.880004882812	846.3855590820312	1030.434814453125	1375.919067382812	911.7179565429688	1012.243591308594	1485.888061523438	923.6940307617188	796.5379638671875	1515.744018554688	463.4668273925781	825.1731567382812	1511.961181640625	619.4786987304688	777.8568115234375	1391.1142578125	48.68502807617188	752.0364990234375	1486.376708984375	313.4804077148438	802.6619262695312	1523.7119140625	23.58288383483887	907.3536987304688	1440.220336914062	31.12612533569336	891.5059814453125	1488.277465820312	33.50150299072266	802.0155639648438	1318.21435546875	43.46673965454102	774.0068359375	1396.031372070312	478.1927490234375	1044.50439453125	1321.137451171875	730.5809936523438	1054.376831054688	1293.192749023438	57.3856315612793	1003.112548828125	1400.689697265625	335.8381652832031	1046.344360351562	1477.014038085938	26.10123634338379	1085.140625	1446.217529296875	31.92569351196289	1014.350830078125	1374.53662109375	41.0599250793457	1079.81201171875	1273.367431640625	47.31254196166992	935.9119873046875	
